<?xml version="1.0" standalone="no"?>
<!DOCTYPE svg PUBLIC "-//W3C//DTD SVG 20010904//EN"
 "http://www.w3.org/TR/2001/REC-SVG-20010904/DTD/svg10.dtd">
<svg version="1.0" xmlns="http://www.w3.org/2000/svg"
 width="315.000000pt" height="315.000000pt" viewBox="0 0 315.000000 315.000000"
 preserveAspectRatio="xMidYMid meet">
<metadata>
Created by potrace 1.14, written by Peter Selinger 2001-2017
</metadata>
<g transform="translate(0.000000,315.000000) scale(0.100000,-0.100000)"
fill="#000000" stroke="none">
<path d="M1389 2926 c-2 -2 -35 -6 -73 -10 -37 -3 -87 -11 -110 -16 -22 -5
-52 -11 -66 -14 -307 -61 -671 -281 -850 -516 -14 -17 -30 -37 -35 -43 -22
-25 -75 -106 -75 -115 0 -6 -4 -12 -9 -14 -12 -5 -85 -162 -109 -238 -46 -141
-57 -219 -56 -385 0 -146 5 -188 33 -295 48 -183 127 -337 250 -490 44 -55
155 -166 200 -200 18 -14 38 -30 45 -37 30 -28 173 -115 244 -149 42 -20 88
-42 102 -49 53 -26 259 -86 348 -100 23 -4 54 -9 70 -11 15 -3 104 -7 197 -8
296 -6 526 44 780 170 274 137 494 347 632 605 158 294 184 675 68 986 -136
364 -438 661 -830 816 -90 36 -268 85 -335 93 -19 3 -58 8 -87 13 -50 8 -327
14 -334 7z"/>
</g>
</svg>
